<?xml version="1.0" encoding="UTF-8" standalone="no"?><!DOCTYPE svg PUBLIC "-//W3C//DTD SVG 1.1//EN" "http://www.w3.org/Graphics/SVG/1.1/DTD/svg11.dtd"><svg width="100%" height="100%" viewBox="0 0 84 84" version="1.1" xmlns="http://www.w3.org/2000/svg" xmlns:xlink="http://www.w3.org/1999/xlink" xml:space="preserve" xmlns:serif="http://www.serif.com/" style="fill-rule:evenodd;clip-rule:evenodd;stroke-linejoin:round;stroke-miterlimit:2;"><path d="M41.667,0c-22.858,0 -41.667,18.809 -41.667,41.667c0,22.857 18.809,41.666 41.667,41.666c22.857,0 41.666,-18.809 41.666,-41.666c-0.025,-22.848 -18.818,-41.642 -41.666,-41.667Zm-0,75c-18.286,0 -33.334,-15.047 -33.334,-33.333c0,-18.286 15.048,-33.334 33.334,-33.334c18.286,0 33.333,15.048 33.333,33.334c-0.021,18.278 -15.055,33.312 -33.333,33.333Z" style="fill:#9b4d41;fill-rule:nonzero;"/><path d="M41.667,44.108l-13.721,-13.721l-5.892,5.892l19.613,19.613l19.612,-19.613l-5.892,-5.892l-13.72,13.721Z" style="fill:#9b4d41;fill-rule:nonzero;"/></svg>