<?xml version="1.0" encoding="UTF-8" standalone="no"?><!DOCTYPE svg PUBLIC "-//W3C//DTD SVG 1.1//EN" "http://www.w3.org/Graphics/SVG/1.1/DTD/svg11.dtd"><svg width="100%" height="100%" viewBox="0 0 2034 648" version="1.1" xmlns="http://www.w3.org/2000/svg" xmlns:xlink="http://www.w3.org/1999/xlink" xml:space="preserve" xmlns:serif="http://www.serif.com/" style="fill-rule:evenodd;clip-rule:evenodd;stroke-linejoin:round;stroke-miterlimit:2;"><circle cx="323.975" cy="323.975" r="323.975" style="fill:url(#_Linear1);"/><path d="M528.546,304.171l-91.675,-91.675l-0.363,-0.317c-0.591,-0.533 -1.212,-1.037 -1.858,-1.508c-0.454,-0.363 -0.904,-0.709 -1.388,-1.025c-0.212,-0.15 -0.42,-0.271 -0.65,-0.409c-10.816,-7.083 -25.258,-4.687 -33.208,5.509l-142.317,142.333l0,-126.8c-0.012,-13.879 -11.27,-25.125 -25.154,-25.112c-13.866,0.012 -25.104,11.25 -25.112,25.112l-0,126.8l-51.959,-51.958c-10.045,-9.579 -25.954,-9.2 -35.533,0.846c-9.258,9.708 -9.258,24.979 0,34.687l94.858,94.858c0.596,0.605 1.225,1.175 1.888,1.705c0.633,0.512 1.3,1.012 1.962,1.508c3.43,2.221 7.346,3.575 11.413,3.937l0.104,0c0.817,0.075 1.629,0.121 2.446,0.121l0.379,0c0.683,0 1.363,-0.029 2.038,-0.091l0.5,-0c0.65,-0.075 1.3,-0.15 1.933,-0.288l0.287,0c0.709,-0.15 1.421,-0.317 2.113,-0.529l0.121,-0c0.758,-0.229 1.504,-0.496 2.233,-0.8c1.042,-0.429 2.05,-0.933 3.021,-1.508l0.575,-0.334c0.95,-0.579 1.858,-1.225 2.717,-1.933l0.258,-0.225c0.529,-0.454 1.058,-0.904 1.508,-1.421l144.313,-144.4l-0,126.408c0.012,13.88 11.271,25.125 25.154,25.113c13.867,-0.013 25.104,-11.25 25.112,-25.113l0,-126.8l48.759,48.85c9.933,9.696 25.846,9.505 35.541,-0.429c9.525,-9.762 9.521,-25.35 -0.016,-35.112Z" style="fill:#fff;fill-rule:nonzero;"/><path d="M761.133,248.346l74.571,-0l0,194.792l44.667,-0l-0,-194.792l74.571,-0l-0,-41.721l-193.809,0l0,41.721Z" style="fill:#1461db;fill-rule:nonzero;"/><path d="M1052.82,265.346c-5.288,0.367 -10.521,1.304 -15.608,2.792c-4.9,1.425 -9.588,3.491 -13.95,6.145c-5.484,3.2 -10.284,7.446 -14.13,12.5c-1.812,2.4 -3.458,4.921 -4.92,7.546l-0,-28.575l-39.413,0l0,177.384l45.075,-0l0,-90.663c-0.121,-6.221 0.792,-12.417 2.7,-18.342c3.496,-10.6 11.317,-19.22 21.525,-23.729c5.55,-2.596 11.533,-4.133 17.646,-4.529c5.771,-0.571 11.596,-0.058 17.179,1.508l0,-41.633c-5.342,-0.662 -10.738,-0.796 -16.104,-0.404Z" style="fill:#1461db;fill-rule:nonzero;"/><path d="M1238.42,293.013c-5.813,-11.434 -15.638,-20.317 -27.596,-24.955c-12.146,-4.829 -26.054,-7.245 -41.725,-7.245c-21.346,-0 -38.204,4.604 -50.583,13.812c-12.13,8.838 -21.013,21.421 -25.284,35.804l40.396,12.8c2.858,-8.112 7.838,-13.746 14.946,-16.908c6.429,-3.025 13.425,-4.65 20.529,-4.771c11.833,0 20.267,2.467 25.3,7.396c3.942,3.85 6.296,9.479 7.142,16.754c-7.546,1.133 -14.717,2.204 -21.434,3.183c-11.483,1.7 -21.77,3.484 -30.87,5.346c-7.975,1.563 -15.825,3.7 -23.488,6.4c-8.362,2.854 -16.087,7.309 -22.75,13.117c-5.458,4.933 -9.658,11.104 -12.242,17.992c-2.583,7.212 -3.862,14.829 -3.775,22.491c-0.104,9.446 2.246,18.759 6.825,27.021c4.663,8.321 11.617,15.133 20.034,19.625c8.816,4.879 19.575,7.317 32.275,7.304c15.337,0 28.012,-2.658 38.025,-7.971c8.6,-4.795 16.208,-11.183 22.416,-18.825l0,21.875l39.096,0l0,-108.55c0.034,-7.341 -0.296,-14.683 -0.996,-21.995c-0.766,-6.9 -2.887,-13.6 -6.241,-19.701Zm-41.725,96.25c-1.842,3.409 -4.134,6.559 -6.809,9.359c-3.845,4.104 -8.408,7.471 -13.466,9.933c-6.484,3.088 -13.609,4.579 -20.788,4.346c-4.542,0.113 -9.058,-0.667 -13.3,-2.296c-3.462,-1.321 -6.458,-3.633 -8.621,-6.642c-2.075,-3.075 -3.129,-6.725 -3.02,-10.429c-0.038,-2.796 0.616,-5.562 1.9,-8.046c1.445,-2.629 3.462,-4.904 5.904,-6.658c3.262,-2.337 6.812,-4.242 10.566,-5.662c4.35,-1.58 8.792,-2.896 13.3,-3.942c5.034,-1.208 11.659,-2.55 19.879,-4.029c5.238,-0.938 11.638,-2.054 18.946,-3.292c-0.091,3.154 -0.225,6.55 -0.466,10.567c-0.234,5.808 -1.604,11.512 -4.025,16.791Z" style="fill:#1461db;fill-rule:nonzero;"/><path d="M1450.11,308.05c-2.18,-8.079 -5.7,-15.733 -10.417,-22.642c-5.254,-7.545 -12.279,-13.691 -20.454,-17.904c-8.754,-4.7 -20.088,-7.05 -33.996,-7.05c-17.408,0 -31.838,3.775 -43.279,11.321c-5.246,3.467 -10.021,7.604 -14.204,12.304l-0,-18.325l-39.746,0l-0,177.384l45.287,-0l0,-89.996c0,-11.071 1.229,-19.942 3.684,-26.613c2.454,-6.671 5.625,-11.733 9.508,-15.187c3.5,-3.267 7.721,-5.659 12.317,-6.988c4.004,-1.154 8.15,-1.762 12.316,-1.812c9.521,-0 16.884,2.137 22.084,6.416c5.141,4.175 9.037,9.684 11.262,15.925c2.246,6.104 3.625,12.492 4.104,18.975c0.442,6.292 0.659,11.463 0.65,15.517l0,83.762l45.288,0l-0,-99.537c-0,-3.021 -0.213,-7.654 -0.65,-14.129c-0.563,-7.246 -1.821,-14.417 -3.754,-21.421Z" style="fill:#1461db;fill-rule:nonzero;"/><path d="M1617.4,349.229c-8.171,-4.629 -18.983,-8.704 -32.442,-12.229c-13.795,-3.5 -24.062,-6.35 -30.795,-8.546c-6.734,-2.196 -11.167,-4.329 -13.3,-6.4c-2.117,-2.008 -3.284,-4.812 -3.217,-7.729c-0,-5.146 2.492,-9.058 7.471,-11.821c4.979,-2.762 11.591,-3.821 19.791,-3.275c8.434,0.654 15.117,2.9 20.046,6.733c4.9,3.784 7.996,9.442 8.546,15.609l45.663,-8.225c-1.346,-10.284 -5.592,-19.971 -12.242,-27.925c-7.021,-8.154 -15.971,-14.421 -26.038,-18.221c-11.8,-4.467 -24.341,-6.642 -36.954,-6.417c-14.341,0 -26.796,2.275 -37.362,6.825c-9.879,3.992 -18.413,10.729 -24.592,19.413c-5.904,8.742 -8.946,19.1 -8.696,29.646c-0.241,8.12 1.742,16.154 5.738,23.233c3.833,6.421 10.079,11.925 18.733,16.513c8.654,4.587 20.229,8.75 34.721,12.483c12.8,3.4 22.241,6.137 28.321,8.212c6.037,2.084 9.991,4.184 11.745,6.325c1.846,2.421 2.776,5.413 2.625,8.455c0.205,5.191 -2.275,10.125 -6.566,13.058c-4.409,3.108 -10.638,4.662 -18.688,4.662c-9.862,0 -17.991,-2.354 -24.396,-7.062c-6.445,-4.754 -10.87,-11.758 -12.391,-19.625l-45.725,7.062c2.958,18.509 11.308,32.83 25.041,42.963c13.738,10.133 31.775,15.196 54.117,15.187c23.217,0 41.392,-5.204 54.525,-15.608c13.133,-10.404 19.725,-24.717 19.775,-42.929c0.242,-8.213 -1.683,-16.346 -5.583,-23.579c-3.754,-6.504 -9.713,-12.096 -17.871,-16.788Z" style="fill:#1461db;fill-rule:nonzero;"/><path d="M1818.51,293.013c-5.813,-11.43 -15.638,-20.313 -27.596,-24.955c-12.159,-4.829 -26.063,-7.245 -41.725,-7.245c-21.346,-0 -38.205,4.604 -50.584,13.812c-12.129,8.842 -21.016,21.421 -25.3,35.804l40.409,12.8c2.858,-8.112 7.837,-13.746 14.945,-16.908c6.43,-3.025 13.425,-4.65 20.53,-4.771c11.833,0 20.266,2.467 25.3,7.396c3.941,3.85 6.279,9.479 7.141,16.754c-7.546,1.133 -14.716,2.204 -21.433,3.183c-11.483,1.7 -21.771,3.484 -30.871,5.346c-7.975,1.563 -15.825,3.7 -23.487,6.4c-9.521,3.521 -17.104,7.875 -22.75,13.059c-5.459,4.933 -9.659,11.104 -12.242,17.991c-2.592,7.213 -3.871,14.829 -3.775,22.492c-0.104,9.446 2.246,18.758 6.825,27.021c4.658,8.325 11.613,15.137 20.033,19.625c8.817,4.879 19.575,7.316 32.275,7.304c15.338,-0 28.013,-2.658 38.025,-7.971c8.6,-4.796 16.209,-11.183 22.417,-18.825l0,21.875l39.096,0l-0,-108.492c0.033,-7.341 -0.296,-14.683 -0.996,-21.995c-0.763,-6.9 -2.883,-13.6 -6.237,-19.701Zm-41.725,96.25c-1.842,3.409 -4.134,6.559 -6.809,9.359c-3.846,4.104 -8.408,7.471 -13.466,9.933c-6.484,3.088 -13.609,4.579 -20.788,4.346c-4.542,0.113 -9.058,-0.667 -13.3,-2.296c-3.463,-1.321 -6.458,-3.633 -8.621,-6.642c-2.075,-3.075 -3.129,-6.725 -3.021,-10.429c-0.037,-2.796 0.617,-5.562 1.9,-8.046c1.442,-2.633 3.459,-4.908 5.905,-6.658c3.262,-2.337 6.812,-4.242 10.566,-5.662c4.35,-1.584 8.792,-2.896 13.3,-3.942c5.033,-1.208 11.658,-2.55 19.879,-4.029c5.238,-0.938 11.638,-2.054 18.946,-3.292c-0.092,3.154 -0.241,6.55 -0.466,10.567c-0.246,5.808 -1.617,11.504 -4.025,16.791Z" style="fill:#1461db;fill-rule:nonzero;"/><path d="M1965.01,354.438l64.05,-88.684l-55.188,0l-60.112,85.409l-0,-144.538l-45.33,0l-0.333,236.513l45.663,-0l-0,-85.409l61.424,85.409l58.146,-0l-68.32,-88.7Z" style="fill:#1461db;fill-rule:nonzero;"/><defs><linearGradient id="_Linear1" x1="0" y1="0" x2="1" y2="0" gradientUnits="userSpaceOnUse" gradientTransform="matrix(561.24,324.019,-324.019,561.24,43.3546,161.965)"><stop offset="0" style="stop-color:#348bed;stop-opacity:1"/><stop offset="0.13" style="stop-color:#348bed;stop-opacity:1"/><stop offset="0.31" style="stop-color:#2b80e8;stop-opacity:1"/><stop offset="0.64" style="stop-color:#1461db;stop-opacity:1"/><stop offset="0.72" style="stop-color:#0e57d7;stop-opacity:1"/><stop offset="1" style="stop-color:#0e57d7;stop-opacity:1"/></linearGradient></defs></svg>